<?xml version="1.0" encoding="UTF-8" ?>
<!DOCTYPE svg PUBLIC "-//W3C//DTD SVG 1.1//EN" "http://www.w3.org/Graphics/SVG/1.1/DTD/svg11.dtd">
<svg width="512pt" height="512pt" viewBox="0 0 512 512" version="1.1"
    xmlns="http://www.w3.org/2000/svg">
    <g id="#a03774ff">
        <path fill="#a03774" opacity="1.00" d=" M 278.43 17.40 C 281.06 14.86 283.59 12.20 286.42 9.86 C 286.88 11.24 287.35 12.62 287.78 14.01 C 287.36 13.28 286.52 11.81 286.10 11.08 C 286.20 20.07 285.61 29.03 285.03 37.99 C 285.24 47.02 283.87 55.98 283.97 65.01 C 283.94 70.28 283.29 75.53 283.09 80.80 C 260.02 113.44 236.47 145.74 213.25 178.27 C 211.48 180.76 209.66 183.20 207.80 185.62 C 204.04 156.27 201.67 126.73 197.67 97.41 C 197.37 96.11 198.75 95.26 199.45 94.39 C 225.82 68.78 252.11 43.07 278.43 17.40 Z" />
        <path fill="#a03774" opacity="1.00" d=" M 208.21 187.83 C 214.43 208.29 219.57 229.06 225.38 249.64 C 248.27 333.34 271.14 417.05 294.13 500.72 C 294.13 501.09 294.14 501.83 294.14 502.21 C 268.67 487.02 243.40 471.49 217.99 456.20 C 216.34 455.58 215.68 454.02 215.88 452.35 C 215.96 449.90 216.12 447.47 216.07 445.03 C 213.35 362.35 210.71 279.67 208.00 196.99 C 207.93 193.94 208.14 190.88 208.21 187.83 Z" />
    </g>
    <g id="#f49fd3ff">
        <path fill="#f49fd3" opacity="1.00" d=" M 286.10 11.08 C 286.52 11.81 287.36 13.28 287.78 14.01 C 301.35 47.90 314.63 81.91 328.09 115.85 C 330.45 122.48 333.74 128.85 335.50 135.65 L 335.22 136.56 C 329.13 131.03 324.08 124.51 318.29 118.70 C 306.57 106.05 294.94 93.32 283.09 80.80 C 283.29 75.53 283.94 70.28 283.97 65.01 C 283.87 55.98 285.24 47.02 285.03 37.99 C 285.61 29.03 286.20 20.07 286.10 11.08 Z" />
    </g>
    <g id="#ffe9fbff">
        <path fill="#ffe9fb" opacity="1.00" d=" M 135.56 47.75 C 136.66 49.25 136.60 51.12 136.73 52.90 C 138.81 63.74 145.89 73.60 155.80 78.60 C 143.85 85.77 140.67 100.85 139.50 113.71 C 139.05 100.61 130.57 88.39 118.35 83.59 C 130.84 76.69 137.06 61.58 135.56 47.75 Z" />
        <path fill="#ffe9fb" opacity="1.00" d=" M 373.63 223.57 C 375.16 236.00 382.21 248.02 393.64 253.71 C 386.17 257.84 382.11 265.95 379.88 273.87 C 378.54 278.73 377.58 283.72 377.51 288.78 C 376.61 281.48 374.47 274.07 369.55 268.42 C 366.04 264.00 361.16 261.06 356.23 258.49 C 368.65 251.94 374.41 237.06 373.63 223.57 Z" />
        <path fill="#ffe9fb" opacity="1.00" d=" M 154.58 357.68 C 156.28 370.00 163.16 382.07 174.63 387.63 C 162.72 394.83 159.37 409.89 158.40 422.79 C 157.70 415.45 155.43 408.05 150.54 402.39 C 147.00 398.07 142.27 394.89 137.19 392.66 C 149.43 385.86 155.48 371.26 154.58 357.68 Z" />
    </g>
    <g id="#d76aa8ff">
        <path fill="#d76aa8" opacity="1.00" d=" M 283.09 80.80 C 294.94 93.32 306.57 106.05 318.29 118.70 C 324.08 124.51 329.13 131.03 335.22 136.56 L 335.50 135.65 L 335.76 134.86 C 336.51 137.14 337.86 139.43 337.37 141.91 C 329.50 225.31 321.59 308.71 313.74 392.11 C 311.72 412.07 310.14 432.10 307.93 452.03 C 303.49 468.30 298.95 484.56 294.13 500.72 C 271.14 417.05 248.27 333.34 225.38 249.64 C 219.57 229.06 214.43 208.29 208.21 187.83 C 208.11 187.28 207.90 186.18 207.80 185.62 C 209.66 183.20 211.48 180.76 213.25 178.27 C 236.47 145.74 260.02 113.44 283.09 80.80 Z" />
    </g>
    <g id="#5b153eff">
        <path fill="#5b153e" opacity="1.00" d=" M 162.73 230.10 C 174.49 185.90 185.74 141.56 197.67 97.41 C 201.67 126.73 204.04 156.27 207.80 185.62 C 207.90 186.18 208.11 187.28 208.21 187.83 C 208.14 190.88 207.93 193.94 208.00 196.99 C 210.71 279.67 213.35 362.35 216.07 445.03 C 216.12 447.47 215.96 449.90 215.88 452.35 C 208.84 425.39 202.49 398.24 195.72 371.21 C 184.61 326.13 173.54 281.04 162.39 235.97 C 161.71 234.02 162.20 232.00 162.73 230.10 Z" />
    </g>
</svg>
